<svg id="Layer_1" data-name="Layer 1" xmlns="http://www.w3.org/2000/svg" viewBox="0 0 1850 900"><defs><style>.cls-1{fill:#0d4e80;}.cls-2{fill:#2da196;}.cls-3{fill:#fff;}.cls-4{fill:#00aeef;}.cls-5{fill:#1b75bc;}</style></defs><title>HighLO</title><rect class="cls-1" x="504.83" y="375.33" width="49.96" height="206.13"/><path class="cls-1" d="M655.07,375.55c-17.58,0-32.78,5.63-45.24,16.71-12.71,11.31-19.15,25.3-19.15,41.51V523c0,16.21,6.44,30.2,19.12,41.58,12.46,11.17,27.69,16.83,45.27,16.83h93.81l-16.31-46.71q-27.06,0-72.82.17a17.61,17.61,0,0,1-13.47-5.53,18.89,18.89,0,0,1-5.46-13.6V441a16.8,16.8,0,0,1,5.92-13.27c4.21-3.79,9.51-5.62,16.21-5.62h86.88V596.34a19,19,0,0,1-5.5,13.7,17.31,17.31,0,0,1-13.43,5.62h-123V662.2h127.7c17.55,0,32.78-5.65,45.23-16.83C793.56,634,800,620,800,603.8V375.55Z"/><path class="cls-1" d="M1023.91,392.38c-12.46-11.18-27.68-16.84-45.25-16.84H883.9V307.79H833.74V581.45H883.9V422.24c15.79-.1,46-.15,90.08-.15a17.48,17.48,0,0,1,13.45,5.55,18.78,18.78,0,0,1,5.46,13.57V581.45h50.17V434C1043.06,417.77,1036.61,403.77,1023.91,392.38Z"/><path class="cls-2" d="M1625.85,327.14A64.34,64.34,0,0,0,1579,307.79H1423.29a66.13,66.13,0,0,0-66.1,66.1V515.36a66.13,66.13,0,0,0,66.1,66.09H1579a66.3,66.3,0,0,0,66.31-66.09V373.89A63.82,63.82,0,0,0,1625.85,327.14Zm-32,51.43v132.1c0,6.68-2.13,12.05-6.52,16.44s-9.83,6.52-16.65,6.52H1431.59c-6.82,0-12.23-2.1-16.55-6.42s-6.4-9.72-6.4-16.54V378.57c0-6.84,2.1-12.29,6.44-16.68h0c4.31-4.37,9.71-6.49,16.51-6.49h139.13c6.8,0,12.24,2.16,16.62,6.59A22.46,22.46,0,0,1,1593.89,378.57Z"/><polygon class="cls-3" points="749.83 581.44 749.83 584.18 748.88 581.44 749.83 581.44"/><path class="cls-1" d="M415.37,464.49v117h51.45V341.51a602.33,602.33,0,0,0-51.45,36.57V416H373.24c-15.51,16-28.51,32.21-38.72,48.47Z"/><path class="cls-1" d="M356.55,416H256.11V307.79H204.66V581.45h51.45v-117h60.36A358,358,0,0,1,356.55,416Z"/><path class="cls-1" d="M466.82,328.81v-21H415.37v56.65Q439.31,346.2,466.82,328.81Z"/><circle class="cls-1" cx="529.81" cy="302.75" r="41.09"/><rect class="cls-1" x="1427.35" y="462.05" width="43.12" height="56.32"/><rect class="cls-4" x="1532.06" y="400.6" width="43.12" height="117.76"/><rect class="cls-1" x="1427.35" y="432.98" width="43.12" height="85.39"/><rect class="cls-5" x="1479.7" y="475.25" width="43.12" height="43.12"/><rect class="cls-4" x="1532.06" y="400.6" width="43.12" height="117.76"/><path class="cls-1" d="M1096.55,577.38c-64.8,37.68-142.2,70.8-227.61,95.4-269.86,77.73-517.34,41-552.78-82S470.75,304.94,740.6,227.22s517.34-41,552.78,82c20.82,72.28-36.17,158.26-141.44,232.66h18.16c113.26-84.08,173.39-180,148.14-258-42.16-130.29-306.22-161.54-589.8-69.79s-479.3,271.76-437.14,402,306.22,161.54,589.8,69.79c84.62-27.38,161.41-62.62,226.4-102A63.48,63.48,0,0,1,1096.55,577.38Z"/><path class="cls-2" d="M1132.53,527.21c-4.31-4.31-6.41-9.72-6.41-16.54V307.79h-51.44V515.36a66.12,66.12,0,0,0,66.09,66.09h196.06V533.63H1149.08C1142.26,533.63,1136.85,531.53,1132.53,527.21Z"/></svg>